<svg xmlns="http://www.w3.org/2000/svg" xmlns:xlink="http://www.w3.org/1999/xlink" viewBox="0 0 44 65" version="1.1" x="0px" y="0px">
    <style type="text/css">
        .color{fill:#d0d4d4;}
    </style>
    <g class="color" stroke="none" stroke-width="1" fill="none" fill-rule="evenodd">
        <g transform="translate(-967.000000, -830.000000)">
            <g transform="translate(967.000000, 830.000000)">
                <path d="M22.0003,8 C21.3793,8 19.8333,8.144 18.8853,9.477 C18.3193,10.273 18.0223,11.403 18.0013,12.835 C18.0123,12.906 18.0153,12.978 18.0093,13.051 L18.0023,13.152 C18.0333,13.805 18.3723,17.715 22.0003,22.659 C25.7693,17.529 25.9883,13.55 26.0003,13.088 L26.0003,13 C26.0003,11.489 25.7023,10.304 25.1143,9.477 C24.1673,8.144 22.6213,8 22.0003,8"/>
                <path d="M22.7796,24.9253 C22.5896,25.1613 22.3026,25.2983 22.0006,25.2983 C21.6976,25.2983 21.4116,25.1613 21.2206,24.9253 C16.4306,18.9763 16.0326,14.0893 16.0016,13.1703 C15.9996,13.1353 16.0006,13.1013 16.0026,13.0683 C16.0016,13.0453 16.0006,13.0233 16.0006,13.0003 C16.0006,11.0663 16.4226,9.4903 17.2556,8.3183 C18.7436,6.2263 21.0696,6.0003 22.0006,6.0003 C22.9306,6.0003 25.2576,6.2263 26.7456,8.3183 C27.5786,9.4903 28.0006,11.0663 28.0006,13.0003 L28.0006,13.1153 C27.9846,13.7033 27.7086,18.8033 22.7796,24.9253 M43.6876,28.2733 C43.4876,28.0843 43.2186,27.9883 42.9446,28.0013 L27.3056,28.8703 C34.1456,20.4853 34.0096,13.2943 34.0006,13.0003 C34.0006,9.7953 33.2046,7.0503 31.6346,4.8413 C29.4796,1.8103 25.8786,0.0003 22.0006,0.0003 C18.1226,0.0003 14.5206,1.8103 12.3656,4.8423 C10.7966,7.0503 10.0006,9.7953 10.0006,12.9693 C9.9906,13.2923 9.8546,20.4853 16.6946,28.8703 L1.0556,28.0013 C0.7846,27.9873 0.5126,28.0843 0.3126,28.2733 C0.1136,28.4623 0.0006,28.7253 0.0006,29.0003 L0.0006,39.0003 C0.0006,39.2843 0.1216,39.5553 0.3336,39.7453 C0.5466,39.9353 0.8296,40.0273 1.1106,39.9933 L17.7766,38.1423 L14.0166,58.8213 C13.9636,59.1133 14.0426,59.4133 14.2326,59.6403 C14.4226,59.8683 14.7036,60.0003 15.0006,60.0003 L29.0006,60.0003 C29.2976,60.0003 29.5786,59.8683 29.7676,59.6403 C29.9586,59.4133 30.0376,59.1133 29.9836,58.8213 L26.2236,38.1423 L42.8896,39.9933 C43.1756,40.0273 43.4546,39.9353 43.6676,39.7453 C43.8796,39.5553 44.0006,39.2843 44.0006,39.0003 L44.0006,29.0003 C44.0006,28.7253 43.8866,28.4623 43.6876,28.2733"/>
            </g>
        </g>
    </g>
</svg>
