<!--?xml version="1.0" encoding="utf-8"?-->
<!-- Generator: Adobe Illustrator 18.1.1, SVG Export Plug-In . SVG Version: 6.00 Build 0)  -->

<svg version="1.1" id="_x32_" xmlns="http://www.w3.org/2000/svg" xmlns:xlink="http://www.w3.org/1999/xlink" x="0px" y="0px" viewBox="0 0 512 512" style="width: 256px; height: 256px; opacity: 1;" xml:space="preserve">
<style type="text/css">
	.st0{fill:#4B4B4B;}
</style>
<g>
	<path class="st0" d="M294.039,187.66c6.772-10.24,12.79-23.144,15.709-38.566c0.837-4.45,1.245-8.808,1.245-13.054
		c0.015-17.142-6.644-32.134-16.788-42.692C284.085,82.79,270.42,76.342,256,76.304c-14.419,0.038-28.085,6.486-38.205,17.036
		c-10.143,10.55-16.81,25.543-16.795,42.684c0,4.254,0.407,8.62,1.252,13.069c4.306,22.67,15.211,39.788,25.512,51.251
		c5.159,5.747,10.181,10.098,14.389,13.183c2.127,1.538,4.027,2.76,5.844,3.74c0.92,0.498,1.802,0.935,2.873,1.35
		c0.543,0.204,1.132,0.415,1.893,0.604c0.777,0.188,1.697,0.399,3.236,0.415c1.538-0.016,2.458-0.226,3.235-0.415
		c1.456-0.385,2.361-0.777,3.296-1.207c3.288-1.576,6.711-3.869,10.965-7.33C279.748,205.526,287.251,197.909,294.039,187.66z
		 M267.003,184.855c-4.035,4.502-7.964,7.873-10.822,9.954c-0.06,0.046-0.106,0.076-0.174,0.121
		c-0.844-0.604-1.757-1.283-2.745-2.112c-4.616-3.786-10.634-9.849-15.957-17.911c-5.332-8.069-10.008-18.1-12.293-30.128
		c-0.58-3.062-0.845-5.972-0.845-8.756c0.015-11.139,4.208-20.218,10.354-26.658c6.154-6.44,14.193-9.925,21.478-9.887
		c7.277-0.038,15.324,3.447,21.478,9.895c6.139,6.448,10.332,15.528,10.347,26.666c0,2.768-0.256,5.678-0.845,8.74
		C283.647,162.397,275.118,175.828,267.003,184.855z">
	</path>
	<path class="st0" d="M432.288,256.716c-0.958-8.145-1.908-14.095-1.923-14.208c-0.619-3.823-3.078-7.067-6.591-8.688
		c-3.522-1.622-7.58-1.388-10.89,0.633c-0.082,0.098-2.074,1.033-4.842,1.908c-4.924,1.599-12.541,3.484-21.342,5.272
		c-13.228,2.707-29.283,5.286-44.419,7.172c-11.342,1.418-22.24,2.429-30.927,2.851c1.335-1.494,2.7-3.032,4.163-4.706
		c10.158-11.674,23.122-27.737,34.26-46.697c11.116-18.974,20.52-40.904,22.949-64.607c0.483-4.774,0.724-9.532,0.724-14.238
		c0-32.118-11.124-62.405-31.562-84.818C321.505,14.156,291.573-0.068,256,0c-35.573-0.068-65.505,14.155-85.889,36.59
		c-20.445,22.414-31.561,52.692-31.561,84.804c0,4.713,0.241,9.464,0.724,14.246c3.718,35.626,22.881,67.27,40.558,90.844
		c7.572,10.06,14.872,18.514,20.799,25.143c-14.736-0.694-35.723-3.137-54.916-6.282c-11.478-1.87-22.382-3.982-30.958-6.041
		c-4.284-1.026-7.993-2.036-10.799-2.948c-2.768-0.867-4.766-1.81-4.849-1.908c-3.304-2.021-7.368-2.248-10.882-0.626
		c-3.522,1.621-5.98,4.864-6.584,8.688c-0.022,0.113-0.98,6.063-1.93,14.208c-0.958,8.167-1.938,18.446-1.945,27.655
		c0.008,9.178,0.973,20.866,1.915,30.527c0.95,9.623,1.893,17.074,1.9,17.134c0.498,3.922,2.911,7.285,6.47,8.989
		c3.56,1.712,7.692,1.501,11.063-0.558c0.219-0.166,2.345-1.161,5.302-2.096c5.234-1.704,13.258-3.673,22.519-5.536
		c13.921-2.813,30.769-5.475,46.666-7.406c15.867-1.946,30.905-3.152,40.746-3.138c1.161,0,2.217,0.016,3.212,0.053
		c-0.317,6.531-1.094,16.493-2.179,28.046c-2.202,23.454-5.664,54.087-9.125,80.851c-1.734,13.379-3.462,25.8-5.023,35.83
		c-1.554,9.97-3.017,17.828-3.907,21.025c-1.282,4.796,0.634,9.894,4.766,12.654c3.725,2.436,7.572,3.884,11.87,5.234
		c12.775,3.877,29.457,5.958,42.036,6.018c8.378-0.015,18.582-1.002,28.25-2.744c4.826-0.883,9.502-1.954,13.777-3.274
		c4.299-1.35,8.145-2.798,11.871-5.234c3.898-2.594,5.859-7.315,4.94-11.916c-1.192-5.912-3.152-18.582-5.317-34.177
		c-3.265-23.454-7.096-53.846-10.098-80.528c-1.508-13.348-2.798-25.761-3.711-35.889c-0.58-6.38-0.98-11.765-1.206-15.905
		c0.973-0.03,2.006-0.046,3.137-0.046c15.076-0.03,41.9,2.813,65.958,6.682c12.058,1.931,23.522,4.126,32.564,6.282
		c4.517,1.078,8.438,2.149,11.417,3.114c2.949,0.935,5.083,1.93,5.294,2.096c3.371,2.059,7.504,2.27,11.063,0.558
		c3.56-1.704,5.981-5.067,6.478-8.989c0.008-0.061,0.951-7.512,1.9-17.134c0.943-9.661,1.908-21.349,1.915-30.527
		C434.226,275.163,433.245,264.884,432.288,256.716z M409.257,312.621c-0.068,0.693-0.136,1.35-0.204,2.021
		c-5.633-1.554-12.179-3.062-19.404-4.524c-14.676-2.956-31.983-5.687-48.446-7.692c-16.494-2.006-32.006-3.296-43.56-3.304
		c-4.222,0-7.911,0.166-11.296,0.634c-1.704,0.256-3.342,0.565-5.144,1.146c-1.779,0.649-3.861,1.365-6.395,3.801
		c-1.146,1.139-2.051,2.534-2.624,4.042c-0.476,1.267-0.611,2.052-0.739,2.745c-0.31,1.976-0.31,3.303-0.332,5.038
		c0.008,3.574,0.272,8.266,0.724,14.17c1.554,20.536,5.46,55.196,9.548,87.79c2.044,16.289,4.132,32.021,6.003,45.143
		c1.139,7.987,2.172,14.796,3.092,20.422c-9.397,2.82-24.947,4.834-34.479,4.781c-6.516,0.008-15.859-0.86-24.118-2.375
		c-3.695-0.671-7.126-1.486-10.03-2.33c0.226-1.237,0.46-2.549,0.701-3.937c3.514-20.302,8.047-55.188,11.758-88.016
		c1.855-16.402,3.484-32.239,4.66-45.422c1.176-13.242,1.915-23.574,1.923-29.894c0-1.214-0.022-2.308-0.113-3.423l-0.212-1.84
		c-0.12-0.709-0.256-1.494-0.724-2.783c-0.573-1.516-1.486-2.941-2.625-4.088c-2.541-2.451-4.638-3.174-6.425-3.823
		c-2.692-0.867-5.075-1.192-7.753-1.448c-2.655-0.241-5.535-0.332-8.695-0.332c-17.534,0.023-44.577,2.987-69.614,6.983
		c-12.504,2.006-24.404,4.269-34.268,6.614c-2.67,0.641-5.158,1.274-7.519,1.93c-0.972-9.66-2.029-22.074-2.013-30.278
		c-0.008-7.346,0.829-16.712,1.704-24.268c5.264,1.448,11.327,2.85,18.024,4.223c13.981,2.85,30.482,5.505,46.198,7.458
		c15.739,1.953,30.557,3.228,41.644,3.235c4.849-0.015,8.906-0.195,12.79-0.958c1.984-0.429,3.944-0.882,6.531-2.368
		c1.275-0.769,2.791-1.878,4.208-3.809c1.41-1.87,2.488-4.781,2.45-7.541c-0.007-2.164-0.535-3.929-1.198-5.385
		c0,0,0-0.016-0.008-0.022c-0.151-0.332-0.294-0.686-0.453-0.981c-0.438-0.913-0.822-1.561-1.154-2.074
		c-0.845-1.237-1.568-2.09-2.444-3.122c-3.182-3.688-8.356-9.11-14.819-16.501c-9.638-11.025-21.817-26.108-31.975-43.333
		c-10.174-17.209-18.197-36.493-20.113-55.617c-0.407-4.02-0.603-7.986-0.603-11.916c0-26.794,9.276-51.425,25.505-69.193
		C203.504,34.464,226.513,23.228,256,23.168c29.486,0.06,52.488,11.297,68.777,29.042c16.222,17.775,25.506,42.405,25.506,69.2
		c0,3.929-0.196,7.896-0.604,11.901c-2.79,28.521-19.472,57.398-36.017,79.229c-8.235,10.935-16.335,20.121-22.444,26.87
		c-3.069,3.386-5.626,6.138-7.579,8.356c-0.988,1.131-1.818,2.096-2.647,3.183c-0.422,0.573-0.845,1.146-1.372,2.081
		c-0.264,0.46-0.558,1.01-0.875,1.855c-0.686,1.486-1.222,3.274-1.229,5.445c-0.038,2.76,1.033,5.664,2.451,7.542
		c1.222,1.689,2.549,2.744,3.703,3.499c2.043,1.304,3.687,1.832,5.241,2.277c2.323,0.619,4.494,0.905,6.885,1.102
		c2.375,0.196,4.932,0.278,7.7,0.286c16.825-0.03,42.638-2.942,66.514-6.818c11.916-1.946,23.25-4.133,32.632-6.38
		c2.369-0.565,4.608-1.131,6.712-1.712c0.874,7.58,1.727,16.848,1.711,24.246C411.074,291.943,410.176,303.36,409.257,312.621z">
	</path>
</g>
</svg>
